PathFileType	4	(X/Y/Z)	motion.trc
DataRate	CameraRate	NumFrames	NumMarkers	Units	OrigDataRate	OrigDataStartFrame	OrigNumFrames
25	25	36	9	mm	25	84	249
Frame#	Time	mPelvis	mHipR	mHipL	mKneeR	mKneeL	mAnkleR	mAnkleL	mToesR	mToesL
X1 Y1 Z1 X2 Y2 Z2 X3 Y3 Z3 X4 Y4 Z4 X5 Y5 Z5 X6 Y6 Z6 X7 Y7 Z7 X8 Y8 Z8 X9 Y9 Z9
84	3.244000	-419.320494	23.322083	3056.842804	-317.729354	-53.008396	3072.106361	-490.380734	-76.855838	3039.396286	59.229262	-89.745373	2859.011650	-409.095705	-519.567966	3119.895220	129.578829	-427.359104	2818.548918	-340.444386	-888.452053	3141.617775	222.744882	-453.604221	2759.824514	-373.396456	-963.800788	3118.178129	
85	3.291000	-419.741035	23.617586	3057.319164	-318.164706	-52.585516	3072.862864	-490.901738	-76.368228	3039.293051	62.804267	-82.554616	2853.518724	-407.899052	-519.550323	3118.715525	129.440442	-430.054486	2813.514709	-340.169430	-888.375878	3140.574217	219.232604	-460.309297	2757.992744	-373.437285	-963.909268	3116.904259	
86	3.322000	-420.112610	23.916723	3057.740211	-318.557620	-52.170500	3073.532104	-491.367012	-75.873651	3039.141893	64.556189	-79.001106	2848.726511	-406.799048	-519.434690	3117.459536	127.515748	-436.624140	2810.915947	-339.939803	-888.322353	3139.612198	213.323668	-472.439498	2759.444714	-373.593718	-964.039981	3115.740061	
87	3.354000	-420.439780	24.200417	3058.108807	-318.912983	-51.779475	3074.116707	-491.771400	-75.405024	3038.966894	63.959859	-80.211744	2845.056772	-405.792445	-519.329607	3116.202831	123.123556	-449.664176	2811.467409	-339.752108	-888.287842	3138.724804	201.290816	-495.353281	2767.997742	-373.785615	-964.191496	3114.742041	
88	3.400000	-420.704752	24.480930	3058.424711	-319.211513	-51.411048	3074.624777	-492.089450	-74.952193	3038.758755	59.356283	-96.217625	2843.948841	-404.881209	-519.216835	3114.933968	116.547503	-471.939802	2815.880537	-339.624673	-888.311327	3137.999296	189.657912	-525.863051	2779.241800	-374.002159	-964.360118	3113.841057	
89	3.478000	-420.413196	24.947600	3058.569193	-318.821996	-50.797381	3074.812174	-491.536498	-74.370034	3038.335085	51.661830	-120.308869	2845.217943	-404.055864	-519.013584	3113.579035	107.134096	-502.027810	2825.232983	-339.568615	-888.378799	3137.353659	176.013619	-568.078876	2799.102545	-374.153465	-964.449346	3113.077641	
90	3.525000	-419.891447	25.452605	3058.609962	-318.245262	-50.171573	3074.865818	-490.818858	-73.778361	3037.848711	41.791290	-150.691003	2848.516464	-403.295934	-518.806398	3112.234116	96.846797	-540.283740	2838.715792	-339.578331	-888.462961	3136.761427	162.872732	-609.548330	2818.489075	-374.323368	-964.549720	3112.392664	
91	3.556000	-418.847024	25.990466	3058.500051	-317.122251	-49.556393	3074.702740	-489.666581	-73.174059	3037.238836	30.765228	-183.056802	2853.110313	-402.602941	-518.546462	3110.873461	86.688064	-578.081310	2853.850603	-339.664131	-888.562024	3136.211634	150.209814	-652.655959	2838.719845	-374.511272	-964.701891	3111.920118	
92	3.588000	-417.488933	26.530389	3058.319092	-315.746188	-48.960634	3074.446678	-488.144696	-72.560169	3036.549091	19.097587	-215.375885	2858.682156	-401.954323	-518.302202	3109.531403	75.961046	-619.805455	2871.346235	-339.805335	-888.676524	3135.715723	135.891452	-697.068036	2861.059189	-374.689907	-964.835703	3111.439943	
93	3.619000	-415.735573	27.072074	3058.003187	-314.028502	-48.391651	3074.015856	-486.185104	-71.915440	3035.740614	6.718635	-249.864787	2865.384340	-401.352257	-518.056691	3108.207941	66.282488	-658.037841	2887.642622	-339.998066	-888.864338	3135.342836	122.949332	-737.371266	2881.846428	-374.909133	-965.003252	3111.041784	
94	3.666000	-413.637519	27.532339	3057.571888	-311.949074	-47.959000	3073.424578	-483.964652	-71.313545	3034.884930	-6.655700	-285.892189	2873.892069	-400.790393	-517.827988	3106.917381	57.204671	-697.267711	2905.102968	-340.225190	-889.077842	3135.021687	108.054809	-773.363352	2894.477606	-375.142008	-965.174854	3110.689402	
95	3.697000	-411.150336	27.936587	3056.994438	-309.331566	-47.683027	3072.530985	-481.458515	-70.756882	3033.943176	-19.632362	-320.635319	2882.987499	-400.234193	-517.593622	3105.643272	49.134266	-732.013941	2920.674801	-340.492845	-889.284730	3134.747505	94.702289	-804.969370	2905.321836	-375.359148	-965.401411	3110.532761	
96	3.712000	-408.195496	28.256752	3056.240559	-306.335598	-47.519490	3071.412563	-478.580266	-70.273511	3032.886505	-31.803802	-352.104127	2891.427517	-399.690539	-517.405391	3104.402304	42.063951	-765.039861	2934.612751	-340.782195	-889.512956	3134.524822	82.533449	-834.725320	2914.486408	-375.615627	-965.643287	3110.466003	
97	3.759000	-404.861122	28.558571	3055.375338	-302.962780	-47.443219	3070.074558	-475.426525	-69.799125	3031.801462	-43.348517	-381.333023	2899.860859	-399.146497	-517.271638	3103.176832	35.547860	-795.789897	2947.720051	-341.085941	-889.765680	3134.359837	73.096871	-865.518510	2927.534103	-375.900716	-965.897858	3110.473394	
98	3.775000	-400.575757	28.747840	3054.245234	-298.789412	-47.596440	3068.341255	-471.688509	-69.422662	3030.606508	-53.853124	-408.033520	2908.344507	-398.559213	-517.184615	3101.956367	29.459246	-822.495222	2959.346771	-341.381997	-890.028715	3134.226084	63.656867	-892.533123	2938.755274	-376.194566	-966.153145	3110.518217	
99	3.806000	-395.621747	28.867681	3052.961588	-293.994188	-47.884434	3066.405296	-467.225313	-69.111571	3029.308558	-63.480422	-433.494329	2917.874336	-397.931963	-517.186701	3100.780725	23.762930	-845.859051	2969.859838	-341.683120	-890.299201	3134.123802	54.979946	-916.246116	2948.773623	-376.471639	-966.381788	3110.502720	
100	3.837000	-389.753729	28.903423	3051.453829	-288.330019	-48.318330	3064.120770	-462.135315	-68.861969	3027.940512	-72.072558	-456.788272	2927.366257	-397.256970	-517.172873	3099.634171	18.023113	-866.880715	2979.932070	-341.979086	-890.562832	3134.031773	46.734508	-937.379301	2957.779884	-376.729518	-966.620684	3110.563517	
101	3.900000	-382.983416	28.930768	3049.750328	-281.910628	-48.867680	3061.577082	-456.346154	-68.614103	3026.464939	-79.573095	-479.065984	2937.880039	-396.540850	-517.211139	3098.504066	12.232449	-886.427283	2989.655495	-342.279911	-890.833616	3133.960962	38.884103	-956.447780	2966.212034	-376.985162	-966.828883	3110.583067	
102	3.915000	-374.729484	28.804582	3047.781944	-274.165332	-49.690198	3058.744192	-449.280769	-68.542868	3024.796724	-86.098485	-499.189079	2948.204756	-395.768583	-517.293155	3097.345352	6.842049	-903.846800	2998.501062	-342.592806	-891.151190	3133.954525	31.448811	-973.641753	2973.996878	-377.257049	-967.050076	3110.606909	
103	3.946000	-365.614861	28.556520	3045.690775	-265.617520	-50.717842	3055.724382	-441.474140	-68.537414	3023.081779	-91.687024	-517.140150	2957.937956	-394.918412	-517.426193	3096.153021	1.738227	-919.452906	3006.754637	-342.924088	-891.503572	3133.986712	24.649272	-988.947034	2981.057405	-377.537310	-967.273772	3110.622168	
104	3.993000	-354.796648	28.051466	3043.412447	-255.811840	-52.007481	3052.454948	-432.385027	-68.730228	3021.283150	-96.410692	-533.128440	2967.033148	-393.788159	-517.670393	3094.722986	-3.049369	-933.345199	3014.361143	-343.297929	-891.871274	3134.009123	18.535119	-1002.571464	2987.393141	-377.840251	-967.503965	3110.666752	
105	4.009000	-343.115777	27.300887	3041.048050	-245.339096	-53.496845	3049.022675	-422.361970	-69.137610	3019.511223	-100.290954	-547.311544	2975.477934	-392.370522	-518.072665	3093.075514	-7.413273	-945.669413	3021.251917	-343.732715	-892.272711	3134.034872	12.951741	-1014.799118	2993.276596	-378.180921	-967.757046	3110.725641	
106	4.056000	-329.934031	26.270183	3038.569927	-233.458430	-55.348884	3045.436382	-411.040485	-69.724508	3017.707586	-103.404157	-559.901893	2983.246565	-390.417695	-518.699288	3091.038704	-11.358363	-956.636369	3027.522326	-344.334990	-892.806351	3134.063244	7.928228	-1025.709510	2998.564720	-378.648072	-968.073606	3110.736847	
107	4.087000	-315.295100	25.100540	3036.043644	-220.348075	-57.355162	3041.715622	-398.175508	-70.353769	3015.961885	-105.605669	-571.139753	2990.534067	-387.725949	-519.355476	3088.051081	-15.068614	-966.459632	3033.477068	-345.012993	-893.367052	3134.069920	3.378514	-1035.460114	3003.376007	-379.173100	-968.345165	3110.601902	
108	4.134000	-299.757123	23.921315	3033.610344	-206.628919	-59.408471	3038.058996	-384.341240	-70.817962	3014.474392	-106.999822	-581.026912	2997.358561	-384.905100	-520.061910	3084.521770	-18.474478	-975.153446	3039.000034	-346.075594	-893.934965	3133.760691	-0.772259	-1044.125795	3007.762671	-379.803926	-968.662918	3110.219002	
109	4.149000	-283.573329	22.781475	3031.319380	-192.513093	-61.412156	3034.582615	-369.701415	-71.113929	3013.168812	-107.440598	-589.609623	3003.702402	-382.195890	-520.476818	3079.331160	-21.636320	-982.746303	3044.269323	-348.512620	-894.214869	3131.109476	-4.562317	-1051.711082	3011.786699	-381.810665	-967.061818	3103.099108	
110	4.180000	-267.381102	21.763761	3029.224873	-178.480804	-63.357718	3031.316757	-355.056107	-71.167879	3012.128830	-107.108720	-596.915960	3009.588957	-379.791498	-520.321548	3072.830915	-24.554253	-989.305913	3049.145937	-351.233929	-894.398034	3127.964020	-8.010845	-1058.238506	3015.455723	-383.946478	-966.553867	3098.675489	
111	4.227000	-251.245022	20.944526	3027.326584	-164.573863	-65.179415	3028.163910	-340.284526	-70.863336	3011.431456	-105.804525	-602.831960	3014.894009	-378.751695	-517.315447	3061.609030	-27.248934	-994.867504	3053.669214	-355.232447	-892.486393	3121.504545	-11.121088	-1063.744307	3018.965006	-387.016356	-964.547813	3091.893196	
112	4.243000	-235.158831	20.316510	3025.533199	-150.780842	-66.790298	3024.997473	-325.496078	-70.295684	3011.007071	-103.715852	-607.355893	3019.438028	-378.824651	-509.914279	3046.225309	-29.732639	-999.454021	3057.822704	-360.871017	-886.171997	3110.252857	-13.909845	-1068.232656	3022.202969	-392.142922	-958.134532	3079.695940	
113	4.305000	-219.382912	19.830098	3023.851395	-137.380034	-68.228982	3021.946907	-310.857832	-69.474719	3010.733128	-100.984707	-610.639215	3023.376703	-380.437553	-498.548090	3028.323174	-32.007709	-1003.122330	3061.640739	-367.555618	-875.533223	3095.632792	-16.382491	-1071.743727	3025.154352	-400.114954	-946.341574	3061.520338	
114	4.321000	-203.820601	19.694997	3022.255659	-124.173492	-69.383904	3019.014120	-296.585888	-68.345375	3010.542393	-97.547039	-612.101793	3026.470900	-384.825557	-480.572760	3006.016731	-34.168318	-1005.134344	3064.822912	-376.334548	-859.618485	3077.123165	-18.506907	-1074.241042	3027.889013	-411.255538	-927.591920	3036.319017	
115	4.352000	-188.786089	19.768974	3020.736456	-111.315586	-70.279069	3016.155720	-282.487541	-66.865496	3010.433435	-93.723081	-612.383962	3028.992176	-391.257256	-457.513303	2981.219530	-36.066767	-1006.417036	3067.561150	-387.457550	-836.793840	3053.126335	-20.338140	-1075.864911	3030.353546	-424.330652	-900.777280	3007.074356	
116	4.399000	-173.144236	20.288188	3019.369364	-96.685827	-70.667714	3013.413668	-268.062264	-64.939044	3010.468960	-89.763053	-611.653090	3031.029701	-400.219470	-426.104575	2953.137398	-37.755806	-1006.916165	3069.875956	-401.503086	-805.689514	3023.436308	-21.893956	-1076.687098	3032.548189	-439.419746	-868.245602	2973.994255	
117	4.414000	-158.723056	20.884575	3018.117428	-83.249904	-70.915833	3010.911942	-254.495531	-62.866703	3010.488987	-86.112238	-610.614955	3032.828569	-409.175634	-394.730300	2926.809788	-39.252929	-1006.699920	3071.830988	-414.610296	-774.130762	2994.392157	-23.221815	-1076.780319	3034.527540	-457.247466	-827.655733	2936.285973	
118	4.461000	-144.075096	21.766046	3016.783476	-69.772854	-70.894338	3008.450985	-240.550905	-60.433198	3010.288477	-83.283424	-610.502958	3034.734488	-418.869972	-358.825237	2901.093483	-40.575247	-1005.853415	3073.441982	-429.508209	-734.374762	2960.668802	-24.358407	-1076.415181	3036.537647	-475.245059	-783.207119	2897.750616	
119	4.539000	-129.712239	22.674119	3015.379190	-56.342922	-70.816711	3005.980253	-226.779982	-57.960857	3009.852648	-79.345629	-606.757700	3035.678625	-429.062724	-318.237066	2875.879288	-41.787948	-1004.431367	3074.878931	-447.237998	-681.230962	2920.562267	-26.994342	-1072.271109	3035.376549	-497.023791	-725.841403	2853.450298	
